<svg width="193" height="53" viewBox="0 0 193 53" fill="none" xmlns="http://www.w3.org/2000/svg">
<path d="M26.3279 52.6677C40.8684 52.6677 52.6558 40.8776 52.6558 26.3338C52.6558 11.7901 40.8684 0 26.3279 0C11.7874 0 0 11.7901 0 26.3338C0 40.8776 11.7874 52.6677 26.3279 52.6677Z" fill="#001E64"/>
<mask id="mask0_2244_997" style="mask-type:alpha" maskUnits="userSpaceOnUse" x="0" y="0" width="53" height="53">
<path d="M26.3279 52.6677C40.8684 52.6677 52.6558 40.8776 52.6558 26.3338C52.6558 11.7901 40.8684 0 26.3279 0C11.7874 0 0 11.7901 0 26.3338C0 40.8776 11.7874 52.6677 26.3279 52.6677Z" fill="#001E64"/>
</mask>
<g mask="url(#mask0_2244_997)">
<mask id="mask1_2244_997" style="mask-type:luminance" maskUnits="userSpaceOnUse" x="-1" y="-1" width="54" height="54">
<path d="M36.46 50.7983C49.9681 45.2029 56.3816 29.7141 50.785 16.203C45.1884 2.69185 29.701 -3.72515 16.1929 1.87019C2.68483 7.46554 -3.72868 22.9544 1.86793 36.4655C7.46454 49.9766 22.9519 56.3936 36.46 50.7983Z" fill="white"/>
</mask>
<g mask="url(#mask1_2244_997)">
<path fill-rule="evenodd" clip-rule="evenodd" d="M40.1547 22.9182L23.5186 39.5544L21.6918 37.7336L13.4123 29.4481L-0.934529 43.795L-4.58203 40.1415L13.4123 22.1531L15.2331 23.9739L23.5186 32.2594L36.5013 19.2707H24.515V14.1108H45.3087V34.9105H40.1547V22.9182Z" fill="#F2F2F2"/>
</g>
</g>
<path d="M69.2544 31.7388V3.73877H75.0544V31.7388H69.2544ZM79.7928 31.7388V10.8988H85.2728V12.6188C86.8461 11.2054 88.7928 10.4988 91.1128 10.4988C92.7395 10.4988 94.1661 10.8588 95.3928 11.5788C96.6461 12.2721 97.6195 13.2454 98.3128 14.4988C99.0061 15.7254 99.3528 17.1654 99.3528 18.8188V31.7388H93.8728V19.6188C93.8728 18.2588 93.4861 17.1921 92.7128 16.4188C91.9395 15.6188 90.8861 15.2188 89.5528 15.2188C88.6195 15.2188 87.7928 15.4054 87.0728 15.7788C86.3528 16.1254 85.7528 16.6321 85.2728 17.2988V31.7388H79.7928ZM109.131 31.7388L100.211 10.8988H106.171L111.891 24.7788L117.571 10.8988H123.411L114.451 31.7388H109.131ZM135.188 32.1388C133.108 32.1388 131.215 31.6588 129.508 30.6988C127.828 29.7388 126.495 28.4454 125.508 26.8188C124.521 25.1921 124.028 23.3654 124.028 21.3388C124.028 19.3121 124.495 17.4854 125.428 15.8588C126.388 14.2321 127.681 12.9388 129.308 11.9788C130.935 11.0188 132.748 10.5388 134.748 10.5388C136.748 10.5388 138.521 11.0321 140.068 12.0188C141.615 13.0054 142.828 14.3388 143.708 16.0188C144.615 17.6988 145.068 19.6054 145.068 21.7388V23.1788H129.628C129.868 24.0054 130.255 24.7521 130.788 25.4188C131.348 26.0854 132.028 26.6054 132.828 26.9788C133.655 27.3521 134.535 27.5388 135.468 27.5388C136.401 27.5388 137.255 27.3921 138.028 27.0988C138.828 26.8054 139.508 26.3921 140.068 25.8588L143.668 29.1388C142.388 30.1788 141.068 30.9388 139.708 31.4188C138.375 31.8988 136.868 32.1388 135.188 32.1388ZM129.548 19.2588H139.668C139.481 18.4321 139.135 17.7121 138.628 17.0988C138.148 16.4588 137.561 15.9654 136.868 15.6188C136.201 15.2454 135.455 15.0588 134.628 15.0588C133.775 15.0588 133.001 15.2321 132.308 15.5788C131.615 15.9254 131.028 16.4188 130.548 17.0588C130.095 17.6721 129.761 18.4054 129.548 19.2588ZM148.426 31.7388V10.8988H153.906V12.6188C155.479 11.2054 157.426 10.4988 159.746 10.4988C161.372 10.4988 162.799 10.8588 164.026 11.5788C165.279 12.2721 166.252 13.2454 166.946 14.4988C167.639 15.7254 167.986 17.1654 167.986 18.8188V31.7388H162.506V19.6188C162.506 18.2588 162.119 17.1921 161.346 16.4188C160.572 15.6188 159.519 15.2188 158.186 15.2188C157.252 15.2188 156.426 15.4054 155.706 15.7788C154.986 16.1254 154.386 16.6321 153.906 17.2988V31.7388H148.426ZM178.777 32.0988C177.283 32.0988 175.963 31.8321 174.817 31.2988C173.67 30.7388 172.777 29.9788 172.137 29.0188C171.497 28.0588 171.177 26.9521 171.177 25.6988C171.177 23.6988 171.923 22.1521 173.417 21.0588C174.937 19.9388 177.017 19.3788 179.657 19.3788C181.47 19.3788 183.177 19.6588 184.777 20.2188V18.6988C184.777 17.4988 184.403 16.5921 183.657 15.9788C182.91 15.3654 181.817 15.0588 180.377 15.0588C179.497 15.0588 178.55 15.2054 177.537 15.4988C176.523 15.7654 175.35 16.1921 174.017 16.7788L172.017 12.7388C173.67 11.9921 175.243 11.4321 176.737 11.0588C178.257 10.6854 179.777 10.4988 181.297 10.4988C184.097 10.4988 186.27 11.1788 187.817 12.5388C189.39 13.8721 190.177 15.7654 190.177 18.2188V31.7388H184.777V30.2588C183.923 30.8988 183.003 31.3654 182.017 31.6588C181.03 31.9521 179.95 32.0988 178.777 32.0988ZM176.377 25.5788C176.377 26.3788 176.723 27.0188 177.417 27.4988C178.11 27.9521 179.03 28.1788 180.177 28.1788C181.083 28.1788 181.923 28.0721 182.697 27.8588C183.47 27.6188 184.163 27.2721 184.777 26.8188V23.7788C184.11 23.5121 183.417 23.3121 182.697 23.1788C181.977 23.0454 181.203 22.9788 180.377 22.9788C179.123 22.9788 178.137 23.2188 177.417 23.6988C176.723 24.1521 176.377 24.7788 176.377 25.5788Z" fill="#20282D"/>
<path d="M67.8271 49.7388V38.8888H72.5236C73.2366 38.8888 73.8566 39.0076 74.3836 39.2453C74.9106 39.4829 75.3187 39.8188 75.6081 40.2528C75.8974 40.6764 76.0421 41.1776 76.0421 41.7563C76.0421 42.2833 75.9077 42.7483 75.6391 43.1513C75.3704 43.5543 74.9932 43.8746 74.5076 44.1123C75.1172 44.3293 75.5926 44.6599 75.9336 45.1043C76.2849 45.5383 76.4606 46.0498 76.4606 46.6388C76.4606 47.2691 76.3056 47.8168 75.9956 48.2818C75.6856 48.7468 75.2516 49.1084 74.6936 49.3668C74.1356 49.6148 73.4794 49.7388 72.7251 49.7388H67.8271ZM69.4546 43.4923H72.4306C73.0402 43.4923 73.5259 43.3476 73.8876 43.0583C74.2492 42.7689 74.4301 42.3763 74.4301 41.8803C74.4301 41.3843 74.2492 40.9916 73.8876 40.7023C73.5259 40.4129 73.0402 40.2683 72.4306 40.2683H69.4546V43.4923ZM69.4546 48.3593H72.6011C73.2831 48.3593 73.8204 48.1991 74.2131 47.8788C74.6161 47.5584 74.8176 47.1244 74.8176 46.5768C74.8176 46.0394 74.6161 45.6106 74.2131 45.2903C73.8204 44.9596 73.2831 44.7943 72.6011 44.7943H69.4546V48.3593ZM80.9421 49.8938C80.3325 49.8938 79.7951 49.7646 79.3301 49.5063C78.8651 49.2479 78.5035 48.8863 78.2451 48.4213C77.9868 47.9459 77.8576 47.4034 77.8576 46.7938V41.8493H79.3921V46.5303C79.3921 47.1503 79.5678 47.6411 79.9191 48.0028C80.2808 48.3644 80.7613 48.5453 81.3606 48.5453C81.7843 48.5453 82.1615 48.4574 82.4921 48.2818C82.8228 48.0958 83.0915 47.8374 83.2981 47.5068V41.8493H84.8481V49.7388H83.2981V48.9328C82.6885 49.5734 81.9031 49.8938 80.9421 49.8938ZM89.3956 49.8938C88.7136 49.8938 88.0729 49.7956 87.4736 49.5993C86.8846 49.3926 86.3731 49.1033 85.9391 48.7313L86.7916 47.7083C87.1946 48.0286 87.6079 48.2766 88.0316 48.4523C88.4656 48.6176 88.9047 48.7003 89.3491 48.7003C89.9071 48.7003 90.3617 48.5918 90.7131 48.3748C91.0644 48.1578 91.2401 47.8736 91.2401 47.5223C91.2401 47.2329 91.1367 47.0056 90.9301 46.8403C90.7234 46.6749 90.4031 46.5613 89.9691 46.4993L88.5431 46.2978C87.7577 46.1841 87.1687 45.9413 86.7761 45.5693C86.3834 45.1973 86.1871 44.7013 86.1871 44.0813C86.1871 43.6059 86.3162 43.1926 86.5746 42.8413C86.8329 42.4796 87.1946 42.2006 87.6596 42.0043C88.1246 41.7976 88.6671 41.6943 89.2871 41.6943C89.8554 41.6943 90.4031 41.7769 90.9301 41.9423C91.4571 42.1076 91.9634 42.3659 92.4491 42.7173L91.6586 43.7403C91.2246 43.4509 90.8009 43.2391 90.3876 43.1048C89.9846 42.9704 89.5764 42.9033 89.1631 42.9033C88.6877 42.9033 88.3054 43.0066 88.0161 43.2133C87.7267 43.4096 87.5821 43.6679 87.5821 43.9883C87.5821 44.2776 87.6802 44.5049 87.8766 44.6703C88.0832 44.8253 88.4191 44.9338 88.8841 44.9958L90.3101 45.1973C91.0954 45.3109 91.6896 45.5538 92.0926 45.9258C92.4956 46.2874 92.6971 46.7783 92.6971 47.3983C92.6971 47.8736 92.5524 48.3024 92.2631 48.6848C91.9737 49.0568 91.5811 49.3513 91.0851 49.5683C90.5891 49.7853 90.0259 49.8938 89.3956 49.8938ZM93.8881 49.7388V41.8493H95.4381V49.7388H93.8881ZM94.6631 40.5783C94.4048 40.5783 94.1826 40.4853 93.9966 40.2993C93.8106 40.1029 93.7176 39.8756 93.7176 39.6173C93.7176 39.3486 93.8106 39.1264 93.9966 38.9508C94.1826 38.7648 94.4048 38.6718 94.6631 38.6718C94.9318 38.6718 95.1591 38.7648 95.3451 38.9508C95.5311 39.1264 95.6241 39.3486 95.6241 39.6173C95.6241 39.8756 95.5311 40.1029 95.3451 40.2993C95.1591 40.4853 94.9318 40.5783 94.6631 40.5783ZM97.2636 49.7388V41.8493H98.8136V42.6553C99.4233 42.0146 100.214 41.6943 101.185 41.6943C101.795 41.6943 102.327 41.8234 102.782 42.0818C103.247 42.3401 103.608 42.7018 103.867 43.1668C104.135 43.6318 104.27 44.1691 104.27 44.7788V49.7388H102.72V45.0423C102.72 44.4223 102.544 43.9366 102.193 43.5853C101.852 43.2236 101.371 43.0428 100.751 43.0428C100.338 43.0428 99.9658 43.1306 99.6351 43.3063C99.3045 43.4819 99.0306 43.7351 98.8136 44.0658V49.7388H97.2636ZM109.84 49.8783C109.065 49.8783 108.362 49.6974 107.732 49.3358C107.112 48.9741 106.616 48.4833 106.244 47.8633C105.882 47.2433 105.702 46.5509 105.702 45.7863C105.702 45.0319 105.877 44.3499 106.229 43.7403C106.58 43.1203 107.055 42.6294 107.655 42.2678C108.254 41.8958 108.92 41.7098 109.654 41.7098C110.388 41.7098 111.039 41.8958 111.607 42.2678C112.175 42.6294 112.625 43.1254 112.956 43.7558C113.297 44.3758 113.467 45.0784 113.467 45.8638V46.2978H107.252C107.334 46.7318 107.494 47.1193 107.732 47.4603C107.98 47.8013 108.29 48.0699 108.662 48.2663C109.044 48.4626 109.458 48.5608 109.902 48.5608C110.284 48.5608 110.651 48.5039 111.003 48.3903C111.364 48.2663 111.664 48.0906 111.902 47.8633L112.894 48.8398C112.429 49.1911 111.948 49.4546 111.452 49.6303C110.966 49.7956 110.429 49.8783 109.84 49.8783ZM107.267 45.1353H111.933C111.871 44.7219 111.726 44.3603 111.499 44.0503C111.282 43.7299 111.008 43.4819 110.677 43.3063C110.357 43.1203 110.005 43.0273 109.623 43.0273C109.23 43.0273 108.869 43.1151 108.538 43.2908C108.207 43.4664 107.928 43.7144 107.701 44.0348C107.484 44.3448 107.339 44.7116 107.267 45.1353ZM117.731 49.8938C117.049 49.8938 116.409 49.7956 115.809 49.5993C115.22 49.3926 114.709 49.1033 114.275 48.7313L115.127 47.7083C115.53 48.0286 115.944 48.2766 116.367 48.4523C116.801 48.6176 117.241 48.7003 117.685 48.7003C118.243 48.7003 118.698 48.5918 119.049 48.3748C119.4 48.1578 119.576 47.8736 119.576 47.5223C119.576 47.2329 119.473 47.0056 119.266 46.8403C119.059 46.6749 118.739 46.5613 118.305 46.4993L116.879 46.2978C116.094 46.1841 115.505 45.9413 115.112 45.5693C114.719 45.1973 114.523 44.7013 114.523 44.0813C114.523 43.6059 114.652 43.1926 114.91 42.8413C115.169 42.4796 115.53 42.2006 115.995 42.0043C116.46 41.7976 117.003 41.6943 117.623 41.6943C118.191 41.6943 118.739 41.7769 119.266 41.9423C119.793 42.1076 120.299 42.3659 120.785 42.7173L119.994 43.7403C119.56 43.4509 119.137 43.2391 118.723 43.1048C118.32 42.9704 117.912 42.9033 117.499 42.9033C117.024 42.9033 116.641 43.0066 116.352 43.2133C116.063 43.4096 115.918 43.6679 115.918 43.9883C115.918 44.2776 116.016 44.5049 116.212 44.6703C116.419 44.8253 116.755 44.9338 117.22 44.9958L118.646 45.1973C119.431 45.3109 120.025 45.5538 120.428 45.9258C120.831 46.2874 121.033 46.7783 121.033 47.3983C121.033 47.8736 120.888 48.3024 120.599 48.6848C120.31 49.0568 119.917 49.3513 119.421 49.5683C118.925 49.7853 118.362 49.8938 117.731 49.8938ZM124.937 49.8938C124.255 49.8938 123.614 49.7956 123.015 49.5993C122.426 49.3926 121.914 49.1033 121.48 48.7313L122.333 47.7083C122.736 48.0286 123.149 48.2766 123.573 48.4523C124.007 48.6176 124.446 48.7003 124.89 48.7003C125.448 48.7003 125.903 48.5918 126.254 48.3748C126.605 48.1578 126.781 47.8736 126.781 47.5223C126.781 47.2329 126.678 47.0056 126.471 46.8403C126.264 46.6749 125.944 46.5613 125.51 46.4993L124.084 46.2978C123.299 46.1841 122.71 45.9413 122.317 45.5693C121.924 45.1973 121.728 44.7013 121.728 44.0813C121.728 43.6059 121.857 43.1926 122.116 42.8413C122.374 42.4796 122.736 42.2006 123.201 42.0043C123.666 41.7976 124.208 41.6943 124.828 41.6943C125.396 41.6943 125.944 41.7769 126.471 41.9423C126.998 42.1076 127.504 42.3659 127.99 42.7173L127.2 43.7403C126.766 43.4509 126.342 43.2391 125.929 43.1048C125.526 42.9704 125.117 42.9033 124.704 42.9033C124.229 42.9033 123.846 43.0066 123.557 43.2133C123.268 43.4096 123.123 43.6679 123.123 43.9883C123.123 44.2776 123.221 44.5049 123.418 44.6703C123.624 44.8253 123.96 44.9338 124.425 44.9958L125.851 45.1973C126.636 45.3109 127.231 45.5538 127.634 45.9258C128.037 46.2874 128.238 46.7783 128.238 47.3983C128.238 47.8736 128.093 48.3024 127.804 48.6848C127.515 49.0568 127.122 49.3513 126.626 49.5683C126.13 49.7853 125.567 49.8938 124.937 49.8938ZM136.528 49.8938C135.66 49.8938 134.823 49.7233 134.017 49.3823C133.211 49.0413 132.498 48.5608 131.878 47.9408L132.87 46.7938C133.459 47.3724 134.058 47.8013 134.668 48.0803C135.288 48.3593 135.934 48.4988 136.605 48.4988C137.132 48.4988 137.592 48.4264 137.985 48.2818C138.388 48.1268 138.698 47.9098 138.915 47.6308C139.132 47.3518 139.24 47.0366 139.24 46.6853C139.24 46.1996 139.07 45.8276 138.729 45.5693C138.388 45.3109 137.825 45.1146 137.039 44.9803L135.226 44.6858C134.234 44.5101 133.49 44.1898 132.994 43.7248C132.508 43.2598 132.265 42.6398 132.265 41.8648C132.265 41.2448 132.431 40.7023 132.761 40.2373C133.092 39.7619 133.557 39.3951 134.156 39.1368C134.766 38.8784 135.469 38.7493 136.264 38.7493C137.05 38.7493 137.82 38.8784 138.574 39.1368C139.339 39.3848 140.026 39.7464 140.635 40.2218L139.736 41.4618C138.569 40.5731 137.386 40.1288 136.187 40.1288C135.712 40.1288 135.298 40.1959 134.947 40.3303C134.596 40.4646 134.322 40.6558 134.125 40.9038C133.929 41.1414 133.831 41.4204 133.831 41.7408C133.831 42.1851 133.981 42.5261 134.28 42.7638C134.58 42.9911 135.076 43.1564 135.768 43.2598L137.52 43.5543C138.667 43.7403 139.509 44.0761 140.046 44.5618C140.584 45.0474 140.852 45.7139 140.852 46.5613C140.852 47.2226 140.672 47.8064 140.31 48.3128C139.948 48.8088 139.442 49.1963 138.791 49.4753C138.14 49.7543 137.386 49.8938 136.528 49.8938ZM146.077 49.8938C145.312 49.8938 144.614 49.7129 143.984 49.3513C143.364 48.9896 142.873 48.4988 142.512 47.8788C142.15 47.2588 141.969 46.5664 141.969 45.8018C141.969 45.0371 142.15 44.3448 142.512 43.7248C142.873 43.1048 143.364 42.6139 143.984 42.2523C144.614 41.8803 145.312 41.6943 146.077 41.6943C146.852 41.6943 147.549 41.8803 148.169 42.2523C148.789 42.6139 149.28 43.1048 149.642 43.7248C150.003 44.3448 150.184 45.0371 150.184 45.8018C150.184 46.5664 150.003 47.2588 149.642 47.8788C149.28 48.4988 148.789 48.9896 148.169 49.3513C147.549 49.7129 146.852 49.8938 146.077 49.8938ZM146.077 48.5298C146.562 48.5298 147.001 48.4109 147.394 48.1733C147.787 47.9253 148.097 47.5946 148.324 47.1813C148.551 46.7679 148.665 46.3029 148.665 45.7863C148.665 45.2799 148.546 44.8253 148.309 44.4223C148.081 44.0089 147.771 43.6783 147.379 43.4303C146.996 43.1823 146.562 43.0583 146.077 43.0583C145.591 43.0583 145.152 43.1823 144.759 43.4303C144.377 43.6783 144.067 44.0089 143.829 44.4223C143.602 44.8253 143.488 45.2799 143.488 45.7863C143.488 46.3029 143.602 46.7679 143.829 47.1813C144.056 47.5946 144.366 47.9253 144.759 48.1733C145.152 48.4109 145.591 48.5298 146.077 48.5298ZM151.65 49.7388V38.8888L153.2 38.5943V49.7388H151.65ZM158.079 49.8938C157.469 49.8938 156.932 49.7646 156.467 49.5063C156.002 49.2479 155.64 48.8863 155.382 48.4213C155.124 47.9459 154.994 47.4034 154.994 46.7938V41.8493H156.529V46.5303C156.529 47.1503 156.705 47.6411 157.056 48.0028C157.418 48.3644 157.898 48.5453 158.497 48.5453C158.921 48.5453 159.298 48.4574 159.629 48.2818C159.96 48.0958 160.228 47.8374 160.435 47.5068V41.8493H161.985V49.7388H160.435V48.9328C159.825 49.5734 159.04 49.8938 158.079 49.8938ZM167.199 49.8783C166.434 49.8783 165.85 49.7026 165.447 49.3513C165.044 48.9896 164.843 48.4678 164.843 47.7858V43.1513H163.169V41.8493H164.843V39.8343L166.377 39.4623V41.8493H168.702V43.1513H166.377V47.4293C166.377 47.8323 166.465 48.1216 166.641 48.2973C166.827 48.4626 167.126 48.5453 167.54 48.5453C167.757 48.5453 167.948 48.5298 168.113 48.4988C168.289 48.4678 168.475 48.4213 168.671 48.3593V49.6613C168.465 49.7336 168.222 49.7853 167.943 49.8163C167.674 49.8576 167.426 49.8783 167.199 49.8783ZM169.844 49.7388V41.8493H171.394V49.7388H169.844ZM170.619 40.5783C170.361 40.5783 170.139 40.4853 169.953 40.2993C169.767 40.1029 169.674 39.8756 169.674 39.6173C169.674 39.3486 169.767 39.1264 169.953 38.9508C170.139 38.7648 170.361 38.6718 170.619 38.6718C170.888 38.6718 171.115 38.7648 171.301 38.9508C171.487 39.1264 171.58 39.3486 171.58 39.6173C171.58 39.8756 171.487 40.1029 171.301 40.2993C171.115 40.4853 170.888 40.5783 170.619 40.5783ZM176.971 49.8938C176.206 49.8938 175.509 49.7129 174.878 49.3513C174.258 48.9896 173.767 48.4988 173.406 47.8788C173.044 47.2588 172.863 46.5664 172.863 45.8018C172.863 45.0371 173.044 44.3448 173.406 43.7248C173.767 43.1048 174.258 42.6139 174.878 42.2523C175.509 41.8803 176.206 41.6943 176.971 41.6943C177.746 41.6943 178.443 41.8803 179.063 42.2523C179.683 42.6139 180.174 43.1048 180.536 43.7248C180.897 44.3448 181.078 45.0371 181.078 45.8018C181.078 46.5664 180.897 47.2588 180.536 47.8788C180.174 48.4988 179.683 48.9896 179.063 49.3513C178.443 49.7129 177.746 49.8938 176.971 49.8938ZM176.971 48.5298C177.456 48.5298 177.896 48.4109 178.288 48.1733C178.681 47.9253 178.991 47.5946 179.218 47.1813C179.446 46.7679 179.559 46.3029 179.559 45.7863C179.559 45.2799 179.44 44.8253 179.203 44.4223C178.975 44.0089 178.665 43.6783 178.273 43.4303C177.89 43.1823 177.456 43.0583 176.971 43.0583C176.485 43.0583 176.046 43.1823 175.653 43.4303C175.271 43.6783 174.961 44.0089 174.723 44.4223C174.496 44.8253 174.382 45.2799 174.382 45.7863C174.382 46.3029 174.496 46.7679 174.723 47.1813C174.951 47.5946 175.261 47.9253 175.653 48.1733C176.046 48.4109 176.485 48.5298 176.971 48.5298ZM182.544 49.7388V41.8493H184.094V42.6553C184.704 42.0146 185.494 41.6943 186.465 41.6943C187.075 41.6943 187.607 41.8234 188.062 42.0818C188.527 42.3401 188.889 42.7018 189.147 43.1668C189.416 43.6318 189.55 44.1691 189.55 44.7788V49.7388H188V45.0423C188 44.4223 187.824 43.9366 187.473 43.5853C187.132 43.2236 186.651 43.0428 186.031 43.0428C185.618 43.0428 185.246 43.1306 184.915 43.3063C184.585 43.4819 184.311 43.7351 184.094 44.0658V49.7388H182.544Z" fill="#20282D"/>
</svg>
