<svg width="50" height="50" viewBox="0 0 50 50" fill="none" xmlns="http://www.w3.org/2000/svg">
<circle cx="25" cy="25" r="25" fill="#4D51AB"/>
<path d="M39.1474 16.3407L25.4097 9.47173C25.1517 9.34276 24.8482 9.34276 24.5904 9.47173L10.8526 16.3407C10.5422 16.4958 10.3462 16.8131 10.3462 17.16V22.7365C10.3462 30.967 15.9936 38.736 24.8071 40.625C34.0474 39.1213 39.6795 30.6791 39.654 22.7367V17.16C39.6538 16.8131 39.4578 16.4958 39.1474 16.3407ZM25 20.1691C24.423 20.1691 23.9537 19.6995 23.9537 19.1226C24.0063 17.7362 25.9941 17.7367 26.0465 19.1226C26.0464 19.6997 25.577 20.1691 25 20.1691ZM37.8216 22.7365C37.8216 31.5235 31.5158 35.8339 29.8412 36.841V27.3522L31.569 25.6244C33.432 26.5875 35.757 25.1545 35.7287 23.0475C35.7287 21.4603 34.4373 20.1689 32.8501 20.1689C30.7434 20.141 29.31 22.4657 30.2734 24.3288L28.2773 26.325C28.1055 26.4967 28.0089 26.7297 28.0089 26.9727V37.7929C27.3308 38.093 26.6317 38.3477 25.9161 38.5544V21.851C28.9626 20.7758 28.2702 16.3082 24.9999 16.244C21.7291 16.3084 21.0377 20.7764 24.0838 21.851V38.5546C23.3682 38.348 22.6691 38.0932 21.9909 37.793V26.9728C21.9909 26.7299 21.8944 26.4967 21.7226 26.3251L19.7265 24.329C20.6896 22.466 19.2566 20.141 17.1496 20.1692C15.5624 20.1692 14.271 21.4605 14.271 23.0478C14.2431 25.1545 16.5677 26.5881 18.4309 25.6247L20.1587 27.3525V36.8413C18.4842 35.8341 12.1784 31.5236 12.1784 22.7367V17.7263L25 11.3154L37.8216 17.7263V22.7365ZM31.8037 23.0477C31.8037 22.4707 32.2731 22.0013 32.8501 22.0013C34.2364 22.0539 34.236 24.0418 32.8501 24.0942C32.2731 24.0942 31.8037 23.6247 31.8037 23.0477ZM18.1963 23.0477C18.1963 23.6247 17.7269 24.0942 17.1499 24.0942C15.7636 24.0416 15.7639 22.0538 17.1499 22.0013C17.7269 22.0013 18.1963 22.4707 18.1963 23.0477Z" fill="white"/>
</svg>
